<?xml version="1.0" encoding="UTF-8"?>
<svg width="525px" height="483px" viewBox="0 0 525 483" version="1.1" xmlns="http://www.w3.org/2000/svg" xmlns:xlink="http://www.w3.org/1999/xlink">
    <title>Artboard Copy 3</title>
    <defs>
        <path d="M341.35308,186.778451 L331.805848,205.664576 C318.114075,212.169583 311.268188,215.422087 311.268188,215.422087 C311.268188,215.422087 301.841788,212.784098 282.988989,207.508119 L273.719696,196.146547 L321.834645,174.061691 L341.35308,186.778451 Z" id="path-1"></path>
    </defs>
    <g id="Artboard-Copy-3" stroke="none" stroke-width="1" fill="none" fill-rule="evenodd">
        <g id="Group" transform="translate(5.1972, 1.962)">
            <g id="water" transform="translate(0, 123.9429)" stroke="#44687D" stroke-linecap="square" stroke-opacity="0.506528628" stroke-width="3">
                <path d="M140.290919,11 C105.798498,42.7903839 -1.69722897,323.988794 0.0203484984,367.752442" id="water-links"></path>
                <path d="M512.290919,0 C504.043733,7.60112561 491.622985,29.4607795 477.51945,58.9241593 C432.637406,152.686234 370.713446,323.452744 372.020348,356.752442" id="water-rechts" transform="translate(442.1455, 178.3762) scale(-1, 1) translate(-442.1455, -178.3762)"></path>
            </g>
            <rect id="Rectangle" fill="#B58261" x="170.54475" y="224" width="4" height="4"></rect>
            <path d="M344.709452,188.966022 C353.919939,188.966022 355.336719,184.022482 355.336719,184.022482 C355.336719,184.022482 358.471978,188.160191 359.970524,188.160191 C362.690342,188.160191 365.9396,185.727509 365.9396,180.377163 C368.76295,180.377163 369.261113,179.831451 368.715733,178.551354 C368.715733,171.282452 364.712363,166.55564 356.705622,164.37092 L344.709452,160.972912 L336.394507,186.778451 L340.102146,190.539912 C341.334811,190.269439 342.870579,189.744809 344.709452,188.966022 Z" id="Path-29" fill="#F2CB65"></path>
            <path d="M135.579924,190.539912 C135.579924,197.331725 140.184314,200.746123 149.393095,200.783105 L163.199191,187.925422 C163.143586,173.607466 163.143586,167.096064 163.199191,168.391219 C163.71754,180.464607 135.579924,174.754688 135.579924,190.539912 Z" id="Path-28" fill="#F2CB65"></path>
            <path d="M157.673476,171.956342 C157.673476,174.390742 153.255691,176.585068 153.255691,177.599611 C153.255691,179.710261 153.745395,181.651535 154.724802,183.423434 C159.97654,183.423434 162.602408,183.423434 162.602408,183.423434 C162.602408,183.423434 162.333453,180.145777 161.795543,173.590464 C160.364817,171.999076 158.990795,171.454369 157.673476,171.956342 Z" id="Path-30" fill="#A11717"></path>
            <g id="Path-26">
                <use fill="#B3AC9D" xlink:href="#path-1"></use>
                <use fill="#C9C2B1" xlink:href="#path-1"></use>
            </g>
            <path d="M222.178178,24.0947942 C226.541798,18.9619632 229.704876,16.0861077 231.667413,15.4672275 C236.091802,14.0720094 259.472252,14.6149793 261.906859,15.4672275 C262.579426,15.7026633 268.57747,34.8527884 268.997904,40.4226109 C269.050145,41.1146915 270.093968,45.5566863 269.726842,47.2739629 C269.403437,48.7867299 267.717836,47.725593 267.045741,46.5720925 C265.565334,44.0313035 262.433334,30.0785886 261.906859,30.1387138 C257.608139,30.6296416 245.755734,17.5093073 245.833144,17.7110913 C246.205598,18.6819599 239.43399,23.7120955 225.518322,32.8014981 C218.29026,37.4582377 214.676229,39.7866074 214.676229,39.7866074 C214.676229,39.7866074 213.440461,35.6035596 214.676229,35.6035596 C215.500075,35.6035596 218.000724,31.7673045 222.178178,24.0947942 Z" id="Path-18" fill="#C9C2B1"></path>
            <path d="M261.163216,435.803159 C256.344715,442.451013 253.935464,449.557721 253.935464,457.123282 C254.400182,462.753758 265.24316,472.106158 271.718164,472.106158 C271.718164,475.653758 293.998456,472.106158 293.998456,471.155948 C296.177078,471.155948 304.45261,464.321616 303.31971,459.844134 C303.31971,449.775741 289.942981,435.085012 283.30666,435.803159 C277.84215,432.686862 270.461002,432.686862 261.163216,435.803159 Z" id="Path-14" fill="#7E624D"></path>
            <path d="M211.439215,469.705345 C224.362996,469.705345 244.125533,460.918211 244.125533,456.060039 C244.125533,451.396718 245.826862,445.071803 249.229519,437.085294 L198.573125,434.102661 L192.668108,442.762568 C188.752185,445.682338 186.794224,449.156897 186.794224,453.186244 C186.794224,455.990492 187.128544,462.493799 190.279484,465.080083 C195.925436,469.714266 206.532287,469.705345 211.439215,469.705345 Z" id="Path-13" fill="#7E624D"></path>
            <path d="M219.758852,190.539912 C216.712428,190.677086 213.870548,200.882591 210.220135,203.9961 C175.556104,233.561731 117.54475,383.610366 117.54475,402.408183 C117.54475,404.881955 127.254368,415.309328 129.468763,415.309328 C130.475258,427.308071 171.621973,436.463033 176.529096,436.463033 C176.529096,445.649464 225.60609,442.779895 225.60609,440.289707 C225.60609,444.732132 270.677209,439.499877 272.983696,439.499877 C307.826795,439.499877 322.758625,430.112417 324.84314,430.112417 C330.071761,430.112417 356.457213,425.341516 356.891273,416.929642 C358.781634,416.929642 378.998109,411.905938 378.998109,399.455293 C378.998109,368.95668 306.195581,221.26426 274.784948,200.893666 C272.440268,199.373082 267.818949,192.150373 265.98304,192.150373 C250.118679,192.150373 235.956218,190.539912 219.758852,190.539912 Z" id="Path-2" fill="#44687D"></path>
            <path d="M143.054485,359.564594 C159.578177,301.706216 202.334444,200.284009 216.638223,197.910243 C230.542127,179.387429 254.217253,174.375025 268.226081,192.979457 C314.480563,261.37056 331.105819,314.08706 345.865724,369.530885 C344.536206,375.892617 321.9598,385.257272 278.136506,397.624849 C222.632479,397.624849 194.880465,397.624849 194.880465,397.624849 C194.880465,397.624849 148.760431,373.224503 148.760431,373.224503 C148.760431,373.224503 141.998561,366.378722 143.054485,359.564594 Z" id="Path-32" fill="#C9C2B1"></path>
            <path d="M216.458514,195.065331 C232.54431,203.360523 240.587208,207.508119 240.587208,207.508119 C240.587208,207.508119 249.100319,203.845328 266.12654,196.519746 C307.740076,181.545918 329.633178,166.399799 331.805848,151.081389 C331.805848,146.81498 280.828941,101.817779 277.849066,102.845056 C265.330661,100.310891 252.356489,110.122325 238.926549,132.279358 C204.585369,122.590393 187.136605,117.745911 186.580259,117.745911 C185.745739,117.745911 174.047677,137.84429 174.047677,142.242315 C181.08258,160.447349 195.219526,178.055021 216.458514,195.065331 Z" id="Path-3" fill="#AC1E2E"></path>
            <path d="M216.145534,191.649043 C216.145534,173.265851 197.763163,161.209336 193.982441,161.209336 C183.440882,161.209336 172.848437,141.278666 172.848437,139.400133 C172.116082,132.033955 161.455317,109.862428 147.691691,109.862428 C135.450773,109.862428 131.582284,121.754684 131.582284,128.266863 C136.015207,128.266863 140.641665,132.812784 145.461659,141.904625 C147.004528,140.234964 148.127037,139.400133 148.829185,139.400133 C151.441223,139.400133 152.682308,140.949509 152.682308,141.904625 C152.682308,163.22588 156.92772,176.049335 156.92772,178.300229 C153.784476,178.300229 147.691691,187.538145 147.691691,196.035178 C147.691691,202.190995 170.99814,228.854849 181.380559,228.854849 C185.392915,228.854849 216.145534,205.445604 216.145534,191.649043 Z" id="Path-4" stroke="#C9C2B1" fill="#C9C2B1"></path>
            <path d="M299.197984,150.043158 C304.663578,150.043158 322.415781,151.483546 329.851119,151.483546 C335.392486,151.483546 347.611028,111.858317 369.482928,111.858317 C380.310055,111.858317 387.285049,128.889871 387.285049,130.692794 C382.474433,130.692794 378.716684,131.106658 376.0118,131.934384 C372.482643,135.874088 370.718064,139.12506 370.718064,141.6873 C368.979506,140.830751 367.502954,139.334595 364.56428,139.334595 C361.4182,139.334595 359.639488,153.089908 359.639488,156.118731 C359.639488,165.794007 346.869826,179.027652 345.858328,179.027652 C345.80988,179.076819 345.712858,179.11154 345.712858,179.175072 C345.712858,194.179245 311.198179,210.087508 306.084893,210.087508 C306.084893,205.558825 309.645923,196.293832 316.767982,182.292528 C296.524511,197.551778 285.631732,205.181403 284.089645,205.181403 C275.668789,205.181403 268.214747,196.689486 268.214747,193.92614 C268.214747,190.539912 269.245395,150.043158 299.197984,150.043158 Z" id="Path-16" fill="#C9C2B1"></path>
            <path d="M132.139106,128.901486 C139.444825,128.901486 145.265612,137.244508 144.811174,141.342887 C144.811174,142.484747 143.562946,146.084533 141.06649,152.142243 C138.655138,154.359787 137.177705,155.426939 136.634192,155.3437 C136.084692,155.259543 136.126612,152.451991 136.126612,151.36209 C136.126612,142.326993 138.496292,137.50438 138.496292,136.242146 C138.496292,132.854027 125.150677,149.756778 124.564462,149.756778 C124.075142,149.756778 122.047976,151.134868 120.899648,151.134868 C119.513322,151.37505 120.899648,147.303879 120.899648,147.303879 C120.899648,144.850012 131.489426,128.901486 132.139106,128.901486 Z" id="Path-5" fill="#C48B41"></path>
            <path d="M212.491226,94.6833789 C223.422595,94.6833789 222.309616,86.8248747 221.916634,69.5341783 C233.391245,66.8301769 240.734493,62.67593 251.505538,69.1073141 C251.505538,99.0127082 259.291058,94.1778227 262.911001,94.1778227 C265.498349,101.73882 267.253622,109.621453 268.176818,117.825722 L229.868249,133.741297 L204.909464,117.825722 C207.138359,107.36698 209.034514,99.8181209 210.59793,95.179144 C210.815841,94.5325593 212.272533,95.3280639 212.491226,94.6833789 Z" id="Path-8" fill="#B58261"></path>
            <path d="M222.290825,68.770711 C222.290825,71.5191255 233.969419,81.6931735 237.69018,81.6931735 C249.863243,81.6931735 262.79844,55.6675688 262.79844,55.6675688 C262.79844,55.6675688 265.540258,34.3920267 265.540258,34.3920267 C265.540258,34.3920267 259.007902,29.3401112 245.943191,19.2362803 C233.301078,22.459969 225.416956,26.2289458 222.290825,30.5432107 C219.164693,34.8574756 218.133817,42.1426235 219.198197,52.3986544 C220.066653,63.3133588 221.097529,68.770711 222.290825,68.770711 Z" id="Path-9" fill="#B58261"></path>
            <path d="M231.866603,124.344787 C236.408524,124.344787 262.545444,108.066511 262.545444,93.7936152 C267.643121,93.7936152 270.618377,97.0301494 270.618377,98.4929623 C274.744032,98.4929623 286.900095,103.849915 286.900095,109.357195 C286.900095,111.023694 261.618593,134.442183 251.299723,134.442183 C242.65013,136.806016 230.003874,130.358621 231.866603,124.344787 Z" id="Path-7" fill="#C9C2B1"></path>
            <path d="M186.971563,117.412569 C186.971563,134.978555 218.439478,140.276229 222.339563,140.276229 C231.534031,140.276229 246.721615,157.854256 246.721615,162.849409 C248.65964,162.849409 249.999614,152.770016 249.999614,138.225756 C249.999614,133.905798 239.905374,122.791113 234.570304,122.791113 C233.760356,122.791113 211.541736,119.495104 211.541736,94.6833789 C206.027139,94.6833789 203.728798,101.928517 202.870762,101.928517 C190.18121,101.928517 186.971563,114.035298 186.971563,117.412569 Z" id="Path-6" fill="#C9C2B1"></path>
            <path d="M212.864818,46.6145114 L209.732492,52.9090243 C213.236886,56.2280085 215.199079,58.5288864 215.619073,59.8116578 C216.85346,63.5818075 213.848793,65.7497241 212.864818,65.2004171 C210.432564,65.2004171 199.697787,61.6989501 199.697787,53.7172892 C198.234263,46.5720925 209.430148,45.4032459 209.430148,45.4032459 C209.430148,45.4032459 210.575038,45.8070011 212.864818,46.6145114 Z" id="Path-11" fill="#C9C2B1"></path>
            <path d="M218.373274,39.7866074 C216.259378,39.7866074 209.732492,51.3967669 209.732492,52.9090243 C209.99704,58.2885977 215.918832,62.9047403 219.511674,62.9047403 C219.511674,60.3642337 220.139148,39.7866074 218.373274,39.7866074 Z" id="Path-12" fill="#653608"></path>
            <path d="M244.968625,20.9662588 C244.968625,24.0623169 249.037692,27.2682589 257.175825,30.5840847 L260.519695,34.8791935 L263.430385,51.1026541 L262.672425,54.2334511 C260.269483,59.0911259 258.971806,62.252483 258.779393,63.7175224 C258.500883,65.8381092 262.272655,66.7056756 262.272655,67.4157799 C262.272655,69.2898722 268.176818,59.820688 268.176818,56.6052794 C268.176818,54.9705444 272.383705,52.7737209 272.383705,50.4647269 C272.383705,47.5099133 267.519524,46.796647 267.30366,44.4845029 C266.716411,38.1944114 265.973134,31.9099407 265.540258,31.9099407 C265.540258,28.752141 255.121589,16.0486507 244.058081,15.4672275 C240.346763,15.4672275 221.826006,21.7741623 221.826006,29.6126148 C221.002891,29.6126148 217.564304,34.7564738 211.510245,45.0441917 L211.510245,49.7247864 C220.086706,39.8277245 224.374936,33.8894425 224.374936,31.9099407 C227.774118,31.9099407 244.968625,25.610346 244.968625,20.9662588 Z" id="Path-10" fill="#653608"></path>
            <path d="M265.540258,61.1846669 C267.719353,66.0236578 269.578163,68.3195637 271.116689,68.0723845 C275.07219,68.0723845 276.775448,65.5988234 276.775448,62.4342525 C276.775448,60.8429689 273.246358,54.4953694 269.804921,54.0318507 C268.037925,52.9215913 267.012647,54.5936557 266.118671,55.7382641 C265.522686,56.5013363 265.329882,58.3168039 265.540258,61.1846669 Z" id="Path-24" fill="#C9C2B1"></path>
            <path d="M243.977768,15.8950563 C252.510031,16.1486576 266.172046,27.1767902 266.172046,33.1748571 C269.880104,39.5491982 270.548361,47.1841518 268.176818,56.0797182 C272.352344,54.5764673 274.440108,51.9976071 274.440108,48.3431377 C274.440108,46.9607905 273.267443,47.6091768 269.963525,42.1998256 C269.963525,41.9798255 268.895971,37.5100922 268.895971,37.2923572 C268.895971,29.652075 269.963525,25.1677879 269.963525,20.1534439 C269.963525,8.92030461 255.888378,0 245.960561,0 C237.098651,0 214.763712,1.39458565 214.763712,33.1748571 C211.456127,36.9661993 208.445393,37.9856472 208.54972,40.9909712 C208.212322,43.9659942 208.445393,46.9607905 213.21862,46.9607905 C213.21862,46.7588558 213.238764,46.5373283 213.252512,46.2963138 C213.450965,42.8174549 215.946568,36.2362198 220.360253,30.0843439 C225.673538,22.6785899 233.766478,15.8950563 243.977768,15.8950563 Z" id="Path-15" fill="#C9C2B1"></path>
            <path d="M370.718064,141.6873 C370.718064,138.124649 373.78174,129.0195 386.136885,129.0195 C386.136885,130.030228 398.988111,149.221859 398.988111,150.685766 C398.151003,150.685766 396.640193,149.781183 394.455681,147.972018 C392.77879,146.583253 389.37025,143.300797 384.23006,138.124649 L381.525747,140.67763 C381.782576,152.34493 381.467658,158.17858 380.580996,158.17858 C379.883344,158.39523 372.138288,141.6873 370.718064,141.6873 Z" id="Path-17" fill="#C48B41"></path>
            <path d="M344.709452,186.778451 C340.842664,186.778451 325.935089,207.972964 318.419978,207.972964 C318.419978,205.452226 310.502431,202.158728 307.903848,202.158728 C307.903848,201.314689 297.23739,197.739603 297.23739,200.521305 C297.23739,202.158728 304.70523,209.669581 306.901804,209.669581 C301.494263,209.669581 284.31346,205.378638 280.537805,205.378638 C281.097382,211.386639 302.010829,224.416182 304.385411,224.416182 C306.354151,224.416182 313.370458,225.461248 316.845156,221.725613 C325.706403,221.725613 344.709452,191.824013 344.709452,186.778451 Z" id="Path-25" fill="#B58261"></path>
            <path d="M160.743633,213.991002 C160.743633,212.959785 162.798917,212.460959 163.435189,212.729631 C165.101307,213.433166 165.925159,217.710292 165.925159,219.037839 C165.925159,217.061645 169.315526,212.729631 172.52022,212.729631 C175.753042,212.729631 171.616973,227.823263 171.616973,227.823263 C171.616973,227.823263 179.898771,215.962421 181.815077,215.962421 C185.499329,215.962421 185.837642,217.424419 185.837642,218.267426 C188.455037,218.267426 189.648858,219.67046 189.648858,222.542508 C189.648858,227.01474 183.784237,239.52484 178.510515,239.52484 C158.426742,239.52484 152.744544,210.376594 152.744544,206.924993 C153.747257,206.924993 154.724441,207.567478 155.413327,208.605698 C157.65316,211.981356 158.632304,213.991002 160.743633,213.991002 Z" id="Path-27" fill="#B58261"></path>
            <path d="M143.582108,358.103988 C142.08754,358.103988 136.68508,376.814993 140.090966,383.656137 C140.090966,385.793861 161.035105,400.888905 169.405154,401.446256 C191.706774,401.446256 222.950634,408.000378 222.950634,411.188117 C234.649574,411.188117 261.443173,408.342017 269.55006,408.342017 C271.266624,408.342017 270.82728,412.886644 277.437595,412.886644 C282.652291,412.886644 320.912554,397.772777 320.912554,395.939598 C327.81286,395.939598 342.977257,387.296866 349.308331,387.296866 C349.308331,381.406286 346.268776,362.458757 344.04265,362.458757 C344.04265,364.189839 324.073888,373.400924 316.238661,373.400924 C305.882147,373.400924 288.097216,383.656137 271.023563,383.656137 C263.195538,380.966351 255.590112,381.204677 248.207285,384.371117 C241.224569,382.58487 233.448446,382.961227 224.878917,385.500188 C224.878917,383.661009 200.810656,377.421103 182.472756,377.421103 C177.756171,377.421103 143.582108,360.58157 143.582108,358.103988 Z" id="Path-31" fill="#AC1E2E"></path>
        </g>
    </g>
</svg>